<svg width="37" height="24" viewBox="0 0 37 24" fill="none" xmlns="http://www.w3.org/2000/svg">
<path d="M0.956714 2.72998C1.01773 2.61512 1.11464 2.50385 1.13618 2.38181C1.3659 1.10402 2.5396 0.285658 4.08659 0.246175C4.2194 0.246175 4.3522 0.246175 4.485 0.246175C11.8 0.246175 19.115 0.260532 26.4264 0.235407C28.2283 0.228228 29.5097 0.917376 30.3029 2.56487C31.2577 4.54976 32.2339 6.52388 33.2784 8.4621C33.7666 9.36302 34.4234 10.1778 35.03 11.0141C35.5433 11.7176 36.1714 12.3493 36.3401 13.2466C36.4155 13.6379 36.4765 14.0363 36.4837 14.4311C36.5016 15.7628 36.4909 17.098 36.4909 18.4296C36.4909 19.8976 35.5505 20.8488 34.0717 20.8452C33.6984 20.8452 33.5225 20.9134 33.3897 21.3154C32.9123 22.7655 31.5448 23.7095 30.0445 23.6987C28.6339 23.6879 27.2233 22.6506 26.7782 21.2436C26.6777 20.9206 26.5341 20.8488 26.2219 20.8488C21.929 20.8596 17.6326 20.856 13.3398 20.8488C13.0527 20.8488 12.9163 20.9026 12.8194 21.2221C12.3922 22.647 11.014 23.6736 9.57464 23.6987C8.08867 23.7203 6.64936 22.7296 6.18634 21.2975C6.0643 20.9206 5.88842 20.8452 5.53308 20.8452C4.80804 20.8524 4.07582 20.8703 3.36514 20.7663C2.18426 20.594 1.44486 19.8617 1.11823 18.7132C1.08234 18.5911 1.01055 18.4834 0.953125 18.365C0.953125 13.1533 0.953125 7.94165 0.953125 2.72998H0.956714ZM12.9701 1.66395C9.96588 1.66395 6.95804 1.66395 3.95379 1.66395C2.86982 1.66395 2.37449 2.16646 2.37449 3.23607C2.37449 7.26327 2.37449 11.2905 2.37449 15.3177C2.37449 16.1755 2.37449 17.0334 2.37449 17.8948C2.37449 18.9357 2.88417 19.4382 3.93584 19.4418C4.46706 19.4418 5.00186 19.4203 5.53308 19.4418C5.88842 19.4562 6.06789 19.3772 6.19352 18.9931C6.6673 17.5431 8.05278 16.5739 9.52798 16.5919C11.057 16.6098 12.3779 17.5897 12.8266 19.09C12.9163 19.388 13.0527 19.4418 13.3219 19.4418C17.6434 19.4346 21.9685 19.4346 26.2901 19.4418C26.5521 19.4418 26.6669 19.3736 26.7567 19.108C27.2628 17.5789 28.6052 16.5883 30.1055 16.5955C31.674 16.6027 32.9518 17.5754 33.4615 19.1439C33.4938 19.2372 33.544 19.4059 33.5871 19.4059C33.9676 19.4095 34.3804 19.4669 34.7142 19.3341C34.9008 19.2587 35.048 18.8567 35.0516 18.5983C35.0839 17.1195 35.0551 15.6371 35.0731 14.1583C35.0803 13.5517 34.9044 13.0277 34.5347 12.5539C34.1506 12.0658 33.7845 11.5633 33.3789 11.0931C33.2605 10.9531 33.0415 10.8418 32.8621 10.8239C30.7839 10.6372 28.7057 10.4613 26.6274 10.2998C25.1235 10.185 24.5169 9.71836 24.1329 8.25033C23.6017 6.21878 23.0956 4.18365 22.6038 2.14492C22.5141 1.77163 22.3669 1.65677 21.9865 1.66036C18.9822 1.67831 15.9744 1.67113 12.9701 1.67113V1.66395ZM32.1478 9.32713C31.6704 8.39749 31.2325 7.56118 30.809 6.72129C30.1378 5.38965 29.4881 4.04366 28.8026 2.71921C28.4185 1.97981 27.7581 1.66036 26.9361 1.66036C26.0496 1.66036 25.1594 1.66036 24.2729 1.66036C24.1472 1.66036 24.0252 1.6819 23.8709 1.69626C24.0862 2.56846 24.2908 3.39759 24.499 4.22672C24.8364 5.55835 25.1774 6.88999 25.5184 8.21803C25.6189 8.61285 25.827 8.86051 26.2829 8.87487C26.8608 8.88923 27.435 8.95384 28.0093 8.99691C29.3481 9.101 30.687 9.20868 32.1406 9.32353L32.1478 9.32713ZM30.0588 17.9953C28.7631 18.024 27.9375 18.9285 27.9627 20.2853C27.9842 21.4518 28.9318 22.3097 30.1665 22.2845C31.3294 22.263 32.2268 21.3334 32.216 20.1632C32.2052 18.9285 31.2469 17.9666 30.0588 17.9917V17.9953ZM7.35286 20.1417C7.34568 21.4016 8.22865 22.2845 9.50286 22.2881C10.6514 22.2917 11.599 21.3262 11.6026 20.1489C11.6026 19.0039 10.6622 18.0133 9.55311 17.9953C8.25378 17.9774 7.36363 18.8496 7.35645 20.1417H7.35286Z" fill="#461D58"/>
<path d="M12.9667 1.66409C15.971 1.66409 18.9788 1.67127 21.9831 1.65332C22.3671 1.65332 22.5107 1.76459 22.6004 2.13788C23.0922 4.1766 23.5983 6.21174 24.1295 8.24329C24.5135 9.71491 25.1201 10.1779 26.6241 10.2928C28.7023 10.4543 30.7841 10.6302 32.8587 10.8168C33.0417 10.8348 33.2571 10.946 33.3755 11.086C33.7811 11.5562 34.1472 12.0587 34.5313 12.5469C34.901 13.0171 35.0769 13.5447 35.0697 14.1513C35.0553 15.6301 35.0805 17.1125 35.0482 18.5913C35.041 18.8497 34.8974 19.2553 34.7108 19.3271C34.377 19.4599 33.9642 19.4024 33.5837 19.3989C33.5406 19.3989 33.4904 19.2338 33.4581 19.1368C32.9484 17.5647 31.667 16.592 30.1021 16.5884C28.6018 16.5813 27.2594 17.5719 26.7533 19.1009C26.6635 19.3666 26.5487 19.4348 26.2867 19.4348C21.9651 19.4276 17.64 19.4276 13.3185 19.4348C13.0493 19.4348 12.9129 19.3845 12.8232 19.083C12.3745 17.5863 11.0536 16.6028 9.52458 16.5848C8.05297 16.5669 6.6675 17.5396 6.19012 18.9861C6.06449 19.3666 5.88503 19.4491 5.52969 19.4348C4.99847 19.4096 4.46366 19.4348 3.93244 19.4348C2.88078 19.4312 2.37468 18.9287 2.37109 17.8878C2.37109 17.0299 2.37109 16.1721 2.37109 15.3106C2.37109 11.2834 2.37109 7.25623 2.37109 3.22903C2.37109 2.15941 2.86642 1.6605 3.95039 1.65691C6.95464 1.65332 9.96248 1.65691 12.9667 1.65691V1.66409Z" fill="#FF9CDB"/>
<path d="M32.1487 9.32724C30.695 9.21238 29.3562 9.1047 28.0174 9.00061C27.4431 8.95395 26.8688 8.89293 26.2909 8.87857C25.8351 8.8678 25.6269 8.62014 25.5264 8.22173C25.1854 6.89009 24.8444 5.56205 24.507 4.23042C24.2989 3.40129 24.0943 2.57216 23.8789 1.69996C24.0297 1.6856 24.1553 1.66406 24.2809 1.66406C25.1675 1.66406 26.0576 1.66406 26.9442 1.66406C27.7661 1.66406 28.4266 1.98351 28.8106 2.72291C29.4962 4.04736 30.1458 5.39335 30.817 6.72499C31.2406 7.56489 31.6749 8.3976 32.1558 9.33082L32.1487 9.32724Z" fill="white"/>
<path d="M30.0616 17.9946C31.2532 17.9695 32.208 18.9314 32.2187 20.1662C32.2295 21.3363 31.3322 22.2659 30.1692 22.2874C28.9345 22.309 27.9869 21.4511 27.9654 20.2882C27.9403 18.9278 28.7658 18.0269 30.0616 17.9982V17.9946Z" fill="white"/>
<path d="M7.35129 20.1408C7.35847 18.8487 8.25221 17.9765 9.54795 17.9944C10.657 18.0088 11.601 18.9994 11.5974 20.148C11.5974 21.3253 10.6499 22.2944 9.4977 22.2872C8.22349 22.2836 7.34052 21.4007 7.3477 20.1408H7.35129Z" fill="white"/>
<path d="M13.6522 15.6445C10.8562 15.5907 8.44774 13.7601 7.74064 11.0035C7.06585 8.36898 8.48004 5.22834 11.312 4.07258C12.0658 3.7639 12.8482 3.58802 13.6666 3.60238C13.803 3.60238 13.9394 3.61674 14.0758 3.63827C14.3127 3.67058 14.406 3.82492 14.3091 4.04745C14.2086 4.28794 14.126 4.52842 14.1727 4.79403C14.2337 5.13142 14.4383 5.36114 14.7254 5.52625C14.9803 5.67341 15.009 5.72366 14.8941 5.99645C14.6106 6.69277 14.7003 7.33526 15.1813 7.90237C15.6515 8.45871 16.4555 8.62741 17.1446 8.35103C17.5 8.20746 17.543 8.22182 17.7333 8.53768C18.0204 9.01506 18.4978 9.1694 19.0111 8.95404C19.0649 8.9325 19.1188 8.90379 19.1762 8.88584C19.3736 8.81405 19.5495 8.89661 19.5746 9.10838C19.6069 9.38117 19.6284 9.65754 19.5997 9.93033C19.3305 12.5649 17.9774 14.3811 15.4864 15.3251C14.8726 15.5584 14.2265 15.6409 13.6486 15.6517L13.6522 15.6445ZM19.0326 9.54268C18.8065 9.56422 18.5947 9.61806 18.3901 9.59293C17.9774 9.54268 17.6615 9.30938 17.4318 8.9648C17.3708 8.87148 17.3133 8.83918 17.1985 8.88225C16.3909 9.19452 15.6622 9.033 15.009 8.49461C14.3737 7.97057 13.8999 6.93326 14.3342 5.9785C14.3845 5.87082 14.3163 5.83134 14.2445 5.78109C13.6989 5.4078 13.5123 4.89094 13.6917 4.25922C13.6989 4.23769 13.6989 4.21256 13.6989 4.19102C12.0406 4.05822 9.90141 4.98785 8.81026 6.96915C7.70116 8.98275 7.95959 11.5958 9.59632 13.3545C11.2761 15.1564 13.8604 15.4794 15.8058 14.6072C18.1819 13.5412 19.1295 11.2835 19.029 9.53909L19.0326 9.54268Z" fill="black" stroke="#461D58" stroke-width="1.15546" stroke-miterlimit="10"/>
<path d="M16.7461 4.17565C16.7461 3.87415 17.0261 3.60136 17.3204 3.60854C17.6112 3.61572 17.8804 3.8885 17.8839 4.17565C17.8839 4.46279 17.5932 4.74276 17.2989 4.73917C16.9974 4.73558 16.7425 4.47715 16.7461 4.17565Z" fill="#461D58"/>
<path d="M16.8842 6.75008C16.6544 6.74649 16.4606 6.55267 16.457 6.32654C16.457 6.09683 16.6473 5.89941 16.877 5.89941C17.1031 5.89941 17.3149 6.11118 17.3149 6.33731C17.3149 6.56344 17.1139 6.75726 16.8842 6.75367V6.75008Z" fill="#461D58"/>
<path d="M19.321 7.30996C19.1846 7.30637 19.059 7.17356 19.0626 7.04076C19.0626 6.8936 19.1954 6.76797 19.3425 6.77156C19.4753 6.77156 19.6046 6.90795 19.6046 7.04076C19.6046 7.18792 19.4682 7.31354 19.3246 7.30996H19.321Z" fill="#461D58"/>
<path d="M19.0343 9.54314C19.1348 11.2875 18.1873 13.5452 15.8111 14.6112C13.8693 15.4799 11.2814 15.1604 9.60165 13.3586C7.96133 11.5962 7.70649 8.9868 8.81559 6.97319C9.90674 4.9919 12.046 4.06227 13.7042 4.19507C13.7042 4.21661 13.7042 4.24173 13.697 4.26327C13.5176 4.89499 13.7042 5.41185 14.2498 5.78513C14.3216 5.83538 14.3898 5.87128 14.3395 5.98255C13.9088 6.9373 14.379 7.97461 15.0143 8.49865C15.6676 9.03705 16.3962 9.20216 17.2038 8.8863C17.3187 8.84323 17.3725 8.87553 17.4371 8.96885C17.6668 9.31342 17.9827 9.54673 18.3955 9.59698C18.6 9.6221 18.8118 9.56827 19.0379 9.54673L19.0343 9.54314ZM9.86725 9.04423C9.86725 9.51443 10.2477 9.90566 10.7143 9.90925C11.1809 9.91284 11.5865 9.51084 11.5865 9.04423C11.5865 8.59556 11.1774 8.18638 10.7215 8.18997C10.2549 8.18997 9.86725 8.57762 9.86725 9.04423ZM15.1687 13.0643C15.5491 13.0643 15.8901 12.7233 15.8901 12.3428C15.8901 11.9803 15.5348 11.6393 15.1651 11.6393C14.8026 11.6393 14.4616 11.9839 14.458 12.3572C14.4508 12.7269 14.7882 13.0607 15.1687 13.0607V13.0643ZM10.7287 11.93C10.7287 12.2315 10.9871 12.4864 11.2886 12.4864C11.5794 12.4864 11.8629 12.2172 11.8665 11.9336C11.8737 11.6429 11.5901 11.3557 11.2958 11.3557C10.9979 11.3557 10.7251 11.6285 10.7251 11.93H10.7287ZM12.5951 7.61209C12.8248 7.61209 13.0258 7.41468 13.0187 7.19214C13.0151 6.96602 12.7997 6.75425 12.5736 6.76143C12.3475 6.7686 12.1572 6.96602 12.1608 7.19573C12.1644 7.42186 12.3618 7.61209 12.5915 7.61209H12.5951ZM13.453 10.1928C13.6827 10.1928 13.8837 9.99898 13.8801 9.77285C13.8765 9.54673 13.6612 9.33496 13.4386 9.34214C13.2125 9.34573 13.0223 9.54673 13.0258 9.77644C13.0258 10.0026 13.2268 10.1928 13.4566 10.1928H13.453Z" fill="white"/>
<path d="M9.85938 9.04469C9.85938 8.57808 10.247 8.19043 10.7136 8.19043C11.1695 8.19043 11.5787 8.59602 11.5787 9.04469C11.5787 9.5113 11.1695 9.9133 10.7065 9.90971C10.2434 9.90612 9.85938 9.51488 9.85938 9.04469Z" fill="#461D58"/>
<path d="M15.16 13.0639C14.776 13.0639 14.4422 12.7301 14.4493 12.3604C14.4565 11.9872 14.7939 11.6426 15.1564 11.6426C15.5261 11.6426 15.8779 11.9836 15.8815 12.3461C15.8815 12.7265 15.5441 13.0675 15.16 13.0675V13.0639Z" fill="#461D58"/>
<path d="M10.7266 11.9298C10.7266 11.6283 10.9958 11.3519 11.2973 11.3555C11.5916 11.3555 11.8751 11.6426 11.868 11.9334C11.8608 12.2169 11.5772 12.4861 11.2901 12.4861C10.9886 12.4861 10.7302 12.2313 10.7302 11.9298H10.7266Z" fill="#461D58"/>
<path d="M12.587 7.61159C12.3573 7.61159 12.1599 7.42135 12.1563 7.19523C12.1527 6.96551 12.3394 6.76451 12.5691 6.76092C12.7916 6.75374 13.007 6.96551 13.0141 7.19164C13.0177 7.41417 12.8203 7.61159 12.5906 7.61159H12.587Z" fill="#461D58"/>
<path d="M13.4502 10.1915C13.2205 10.1915 13.0231 9.99771 13.0195 9.77517C13.0195 9.54546 13.2062 9.34804 13.4323 9.34087C13.6584 9.33728 13.8702 9.54546 13.8738 9.77158C13.8738 9.99412 13.6764 10.1915 13.4467 10.1915H13.4502Z" fill="#461D58"/>
</svg>
