<svg width="28" height="26" viewBox="0 0 28 26" fill="none" xmlns="http://www.w3.org/2000/svg">
<mask id="path-1-inside-1_5231_8595" fill="white">
<path d="M14.3088 25.7739C10.7696 25.7739 7.23039 25.7739 3.69424 25.7739C2.25518 25.7739 1.48645 25.0021 1.48338 23.5662C1.48338 19.5965 1.48338 15.6267 1.47723 11.657C1.47723 11.4264 1.41573 11.1804 1.31733 10.9744C0.902222 10.1227 0.791525 9.23093 0.914521 8.30845C1.07134 7.14306 1.29581 5.98382 1.41573 4.81228C1.50183 3.96975 1.46186 3.118 1.48645 2.26933C1.50798 1.51905 1.72015 0.836419 2.43968 0.495104C2.82404 0.313684 3.28835 0.218362 3.71884 0.218362C8.38656 0.199912 13.0543 0.206062 17.722 0.206062C20.105 0.206062 22.4912 0.206062 24.8742 0.206062C26.2887 0.206062 27.1066 0.980939 27.042 2.39847C26.9652 4.11427 27.2757 5.7778 27.534 7.45363C27.7308 8.73587 27.7708 10.0027 27.1097 11.1958C27.0359 11.3249 27.0574 11.5156 27.0574 11.6786C27.0574 15.6606 27.0574 19.6426 27.0574 23.6246C27.0574 25.0237 26.3071 25.7709 24.8896 25.7739C21.3627 25.7739 17.8388 25.7739 14.3119 25.7739H14.3088ZM25.8398 12.229C25.7537 12.2351 25.7014 12.229 25.6553 12.2443C24.7205 12.5488 23.8749 12.3058 23.1 11.777C22.8509 11.6078 22.7033 11.6232 22.4727 11.7862C21.3442 12.5857 19.939 12.5826 18.8197 11.7677C18.583 11.5955 18.4415 11.6263 18.2263 11.777C17.0732 12.5887 15.6772 12.5857 14.5395 11.7585C14.3181 11.5986 14.1858 11.6201 13.9798 11.7647C12.8052 12.5918 11.4307 12.5887 10.2623 11.7493C10.0562 11.6017 9.92709 11.6171 9.73337 11.7554C8.52493 12.601 7.18427 12.5949 5.98505 11.7401C5.79133 11.6017 5.67448 11.6294 5.48384 11.7401C5.13945 11.943 4.77968 12.1921 4.3984 12.2505C3.85106 12.3366 3.2822 12.272 2.70719 12.272C2.70412 12.3427 2.69182 12.4442 2.69182 12.5426C2.69182 16.2725 2.69182 19.9993 2.69182 23.7291C2.69182 23.8552 2.67337 24.0089 2.73487 24.0981C2.84864 24.2642 3.00239 24.4948 3.16228 24.5163C3.60507 24.5747 4.06016 24.5348 4.53369 24.5348V14.2307H11.2339V24.5563C11.4 24.5563 11.5291 24.5563 11.6552 24.5563C16.0923 24.5563 20.5325 24.5563 24.9696 24.5563C25.6922 24.5563 25.8305 24.4179 25.8305 23.6861C25.8305 20.0208 25.8305 16.3555 25.8305 12.6902C25.8305 12.5395 25.8305 12.3889 25.8305 12.2259L25.8398 12.229ZM2.70412 3.82523H25.8244C25.8336 3.76988 25.8398 3.74528 25.8398 3.72069C25.8398 3.2779 25.8428 2.83204 25.8398 2.38925C25.8398 1.63897 25.6153 1.41758 24.8619 1.41758C20.0927 1.41758 15.3236 1.41758 10.5544 1.41758C8.17131 1.41758 5.78518 1.41758 3.40212 1.41758C2.94396 1.41758 2.71949 1.5867 2.70719 1.98644C2.68875 2.59219 2.70104 3.20103 2.70104 3.82523H2.70412ZM9.99473 15.4484H5.77903V24.5348H9.99473V15.4484ZM19.1764 5.08902C19.1641 5.14129 19.1457 5.17512 19.1457 5.20894C19.1457 6.90937 19.1364 8.60672 19.1518 10.3071C19.1518 10.4547 19.2687 10.6392 19.3886 10.7407C20.0866 11.3249 21.2674 11.3249 21.9561 10.7253C22.0853 10.6146 22.1745 10.384 22.1775 10.2087C22.1929 8.5975 22.1868 6.98624 22.1868 5.37806C22.1868 5.28274 22.1683 5.18434 22.1591 5.08902H19.1733H19.1764ZM6.35711 5.08902C6.35711 5.22124 6.35711 5.31041 6.35711 5.39959C6.35711 7.03544 6.35096 8.67129 6.36634 10.3071C6.36634 10.4547 6.48319 10.6392 6.60003 10.7407C7.25499 11.2942 8.30353 11.3157 9.05381 10.8268C9.29673 10.67 9.41358 10.4824 9.4105 10.1749C9.39513 8.59134 9.40435 7.00469 9.40128 5.41804C9.40128 5.31041 9.3859 5.19972 9.37975 5.08902H6.35711ZM13.6662 5.08902H10.6528C10.6405 5.14129 10.6251 5.17512 10.6251 5.21202C10.6251 6.91244 10.6159 8.60979 10.6343 10.3102C10.6343 10.4578 10.7542 10.6423 10.8742 10.7407C11.5752 11.3249 12.7468 11.3188 13.4417 10.7223C13.5647 10.6177 13.6539 10.4055 13.66 10.2426C13.6816 9.49537 13.6693 8.74509 13.6693 7.99789C13.6693 7.03544 13.6693 6.07607 13.6693 5.08902H13.6662ZM14.8808 5.08902C14.8808 6.85709 14.8746 8.58212 14.89 10.3071C14.89 10.4547 15.0068 10.6392 15.1268 10.7407C15.7817 11.2942 16.8303 11.3157 17.5805 10.8268C17.8235 10.6669 17.9372 10.4824 17.9342 10.1749C17.9188 8.59134 17.928 7.00469 17.9249 5.41804C17.9249 5.31041 17.9096 5.19972 17.9034 5.08902H14.8808ZM23.4044 5.07057C23.4044 6.86017 23.4044 8.59749 23.4044 10.3348C23.4044 10.4178 23.4198 10.5255 23.4721 10.5808C23.9149 11.0451 24.4776 11.1989 25.0987 11.1527C25.646 11.1128 26.0427 10.8176 26.2026 10.3041C26.3317 9.88588 26.4517 9.4308 26.4178 9.00338C26.3164 7.75497 26.138 6.51578 25.972 5.27352C25.9627 5.19664 25.809 5.0798 25.7229 5.0798C24.9634 5.06442 24.207 5.07057 23.4013 5.07057H23.4044ZM5.13945 5.07057C4.33075 5.07057 3.57124 5.06135 2.81482 5.08287C2.72257 5.08287 2.56882 5.24584 2.55652 5.35039C2.39355 6.48811 2.21521 7.6289 2.12604 8.77277C2.08606 9.27398 2.18138 9.81209 2.33821 10.2948C2.57497 11.0175 3.2207 11.3003 4.03248 11.1435C4.87193 10.9836 5.14252 10.6515 5.14252 9.78749C5.14252 9.72291 5.14252 9.66141 5.14252 9.59684C5.14252 8.10551 5.14252 6.6111 5.14252 5.07057H5.13945Z"/>
</mask>
<path d="M14.3088 25.7739C10.7696 25.7739 7.23039 25.7739 3.69424 25.7739C2.25518 25.7739 1.48645 25.0021 1.48338 23.5662C1.48338 19.5965 1.48338 15.6267 1.47723 11.657C1.47723 11.4264 1.41573 11.1804 1.31733 10.9744C0.902222 10.1227 0.791525 9.23093 0.914521 8.30845C1.07134 7.14306 1.29581 5.98382 1.41573 4.81228C1.50183 3.96975 1.46186 3.118 1.48645 2.26933C1.50798 1.51905 1.72015 0.836419 2.43968 0.495104C2.82404 0.313684 3.28835 0.218362 3.71884 0.218362C8.38656 0.199912 13.0543 0.206062 17.722 0.206062C20.105 0.206062 22.4912 0.206062 24.8742 0.206062C26.2887 0.206062 27.1066 0.980939 27.042 2.39847C26.9652 4.11427 27.2757 5.7778 27.534 7.45363C27.7308 8.73587 27.7708 10.0027 27.1097 11.1958C27.0359 11.3249 27.0574 11.5156 27.0574 11.6786C27.0574 15.6606 27.0574 19.6426 27.0574 23.6246C27.0574 25.0237 26.3071 25.7709 24.8896 25.7739C21.3627 25.7739 17.8388 25.7739 14.3119 25.7739H14.3088ZM25.8398 12.229C25.7537 12.2351 25.7014 12.229 25.6553 12.2443C24.7205 12.5488 23.8749 12.3058 23.1 11.777C22.8509 11.6078 22.7033 11.6232 22.4727 11.7862C21.3442 12.5857 19.939 12.5826 18.8197 11.7677C18.583 11.5955 18.4415 11.6263 18.2263 11.777C17.0732 12.5887 15.6772 12.5857 14.5395 11.7585C14.3181 11.5986 14.1858 11.6201 13.9798 11.7647C12.8052 12.5918 11.4307 12.5887 10.2623 11.7493C10.0562 11.6017 9.92709 11.6171 9.73337 11.7554C8.52493 12.601 7.18427 12.5949 5.98505 11.7401C5.79133 11.6017 5.67448 11.6294 5.48384 11.7401C5.13945 11.943 4.77968 12.1921 4.3984 12.2505C3.85106 12.3366 3.2822 12.272 2.70719 12.272C2.70412 12.3427 2.69182 12.4442 2.69182 12.5426C2.69182 16.2725 2.69182 19.9993 2.69182 23.7291C2.69182 23.8552 2.67337 24.0089 2.73487 24.0981C2.84864 24.2642 3.00239 24.4948 3.16228 24.5163C3.60507 24.5747 4.06016 24.5348 4.53369 24.5348V14.2307H11.2339V24.5563C11.4 24.5563 11.5291 24.5563 11.6552 24.5563C16.0923 24.5563 20.5325 24.5563 24.9696 24.5563C25.6922 24.5563 25.8305 24.4179 25.8305 23.6861C25.8305 20.0208 25.8305 16.3555 25.8305 12.6902C25.8305 12.5395 25.8305 12.3889 25.8305 12.2259L25.8398 12.229ZM2.70412 3.82523H25.8244C25.8336 3.76988 25.8398 3.74528 25.8398 3.72069C25.8398 3.2779 25.8428 2.83204 25.8398 2.38925C25.8398 1.63897 25.6153 1.41758 24.8619 1.41758C20.0927 1.41758 15.3236 1.41758 10.5544 1.41758C8.17131 1.41758 5.78518 1.41758 3.40212 1.41758C2.94396 1.41758 2.71949 1.5867 2.70719 1.98644C2.68875 2.59219 2.70104 3.20103 2.70104 3.82523H2.70412ZM9.99473 15.4484H5.77903V24.5348H9.99473V15.4484ZM19.1764 5.08902C19.1641 5.14129 19.1457 5.17512 19.1457 5.20894C19.1457 6.90937 19.1364 8.60672 19.1518 10.3071C19.1518 10.4547 19.2687 10.6392 19.3886 10.7407C20.0866 11.3249 21.2674 11.3249 21.9561 10.7253C22.0853 10.6146 22.1745 10.384 22.1775 10.2087C22.1929 8.5975 22.1868 6.98624 22.1868 5.37806C22.1868 5.28274 22.1683 5.18434 22.1591 5.08902H19.1733H19.1764ZM6.35711 5.08902C6.35711 5.22124 6.35711 5.31041 6.35711 5.39959C6.35711 7.03544 6.35096 8.67129 6.36634 10.3071C6.36634 10.4547 6.48319 10.6392 6.60003 10.7407C7.25499 11.2942 8.30353 11.3157 9.05381 10.8268C9.29673 10.67 9.41358 10.4824 9.4105 10.1749C9.39513 8.59134 9.40435 7.00469 9.40128 5.41804C9.40128 5.31041 9.3859 5.19972 9.37975 5.08902H6.35711ZM13.6662 5.08902H10.6528C10.6405 5.14129 10.6251 5.17512 10.6251 5.21202C10.6251 6.91244 10.6159 8.60979 10.6343 10.3102C10.6343 10.4578 10.7542 10.6423 10.8742 10.7407C11.5752 11.3249 12.7468 11.3188 13.4417 10.7223C13.5647 10.6177 13.6539 10.4055 13.66 10.2426C13.6816 9.49537 13.6693 8.74509 13.6693 7.99789C13.6693 7.03544 13.6693 6.07607 13.6693 5.08902H13.6662ZM14.8808 5.08902C14.8808 6.85709 14.8746 8.58212 14.89 10.3071C14.89 10.4547 15.0068 10.6392 15.1268 10.7407C15.7817 11.2942 16.8303 11.3157 17.5805 10.8268C17.8235 10.6669 17.9372 10.4824 17.9342 10.1749C17.9188 8.59134 17.928 7.00469 17.9249 5.41804C17.9249 5.31041 17.9096 5.19972 17.9034 5.08902H14.8808ZM23.4044 5.07057C23.4044 6.86017 23.4044 8.59749 23.4044 10.3348C23.4044 10.4178 23.4198 10.5255 23.4721 10.5808C23.9149 11.0451 24.4776 11.1989 25.0987 11.1527C25.646 11.1128 26.0427 10.8176 26.2026 10.3041C26.3317 9.88588 26.4517 9.4308 26.4178 9.00338C26.3164 7.75497 26.138 6.51578 25.972 5.27352C25.9627 5.19664 25.809 5.0798 25.7229 5.0798C24.9634 5.06442 24.207 5.07057 23.4013 5.07057H23.4044ZM5.13945 5.07057C4.33075 5.07057 3.57124 5.06135 2.81482 5.08287C2.72257 5.08287 2.56882 5.24584 2.55652 5.35039C2.39355 6.48811 2.21521 7.6289 2.12604 8.77277C2.08606 9.27398 2.18138 9.81209 2.33821 10.2948C2.57497 11.0175 3.2207 11.3003 4.03248 11.1435C4.87193 10.9836 5.14252 10.6515 5.14252 9.78749C5.14252 9.72291 5.14252 9.66141 5.14252 9.59684C5.14252 8.10551 5.14252 6.6111 5.14252 5.07057H5.13945Z" fill="#461D58" stroke="#461D58" stroke-width="0.614982" mask="url(#path-1-inside-1_5231_8595)"/>
<path d="M25.8366 12.2263C25.8366 12.3893 25.8366 12.5399 25.8366 12.6906C25.8366 16.3559 25.8366 20.0212 25.8366 23.6865C25.8366 24.4183 25.7013 24.5567 24.9756 24.5567C20.5385 24.5567 16.0984 24.5567 11.6613 24.5567C11.5352 24.5567 11.4091 24.5567 11.24 24.5567V14.2311H4.53978V24.5352C4.06317 24.5352 3.61116 24.5721 3.16837 24.5167C3.00847 24.4952 2.85473 24.2646 2.74096 24.0985C2.67946 24.0063 2.69791 23.8525 2.69791 23.7295C2.69791 19.9997 2.69791 16.2729 2.69791 12.543C2.69791 12.4415 2.70713 12.3432 2.71328 12.2724C3.28829 12.2724 3.86022 12.337 4.40448 12.2509C4.78577 12.1894 5.14246 11.9434 5.48993 11.7405C5.6775 11.6298 5.79742 11.6021 5.99114 11.7405C7.19035 12.5984 8.53101 12.6014 9.73945 11.7558C9.93317 11.6205 10.0623 11.6021 10.2683 11.7497C11.4337 12.5891 12.8113 12.5953 13.9859 11.7651C14.1919 11.6205 14.3272 11.599 14.5455 11.7589C15.6833 12.5861 17.0762 12.5861 18.2324 11.7774C18.4476 11.6267 18.5891 11.599 18.8258 11.7681C19.9451 12.583 21.3503 12.583 22.4788 11.7866C22.7094 11.6236 22.857 11.6082 23.1061 11.7774C23.881 12.3063 24.7235 12.5492 25.6613 12.2448C25.7075 12.2294 25.7597 12.2355 25.8458 12.2294L25.8366 12.2263ZM23.9824 22.7118V14.2373H13.0727V22.7118H23.9824Z" fill="#FF9CDB"/>
<path d="M2.70324 3.82563C2.70324 3.20142 2.69094 2.59259 2.70938 1.98683C2.72168 1.58709 2.94615 1.41797 3.40431 1.41797C5.78737 1.41797 8.1735 1.41797 10.5566 1.41797C15.3257 1.41797 20.0949 1.41797 24.8641 1.41797C25.6175 1.41797 25.8389 1.63936 25.8419 2.38964C25.8419 2.83243 25.8419 3.27829 25.8419 3.72108C25.8419 3.74568 25.8358 3.77028 25.8266 3.82563H2.70324ZM6.31933 2.60796C6.31318 2.32507 6.02414 2.0514 5.74125 2.0637C5.42453 2.076 5.15394 2.35582 5.17239 2.65716C5.19084 2.94927 5.46758 3.21064 5.75047 3.20449C6.06104 3.19527 6.32548 2.91853 6.31933 2.60796ZM7.55852 3.20449C7.86601 3.20757 8.14275 2.93698 8.14583 2.62948C8.14583 2.34659 7.87216 2.06678 7.58927 2.0637C7.28178 2.0637 6.99889 2.33737 7.00196 2.63871C7.00504 2.92775 7.27563 3.19834 7.55852 3.20449ZM4.48976 2.63563C4.49591 2.35274 4.22839 2.07292 3.94242 2.06985C3.63186 2.0637 3.35204 2.33429 3.35204 2.63871C3.35204 2.92468 3.62571 3.20449 3.90245 3.21064C4.20994 3.21372 4.48361 2.94928 4.48976 2.63563Z" fill="white"/>
<path d="M9.98524 15.4482V24.5346H5.76953V15.4482H9.98524Z" fill="white"/>
<path d="M19.1721 5.08984H22.1579C22.1671 5.18517 22.1856 5.28049 22.1856 5.37889C22.1856 6.99014 22.1948 8.60139 22.1763 10.2096C22.1763 10.3848 22.0841 10.6155 21.9549 10.7262C21.2662 11.3227 20.0854 11.3258 19.3874 10.7415C19.2675 10.6401 19.1506 10.4556 19.1506 10.308C19.1352 8.60754 19.1414 6.91019 19.1445 5.20977C19.1445 5.17594 19.1598 5.13904 19.1752 5.08984H19.1721Z" fill="white"/>
<path d="M6.35278 5.08984H9.37542C9.38157 5.20054 9.39694 5.30816 9.39694 5.41886C9.39694 7.00551 9.39079 8.58909 9.40616 10.1757C9.40616 10.4832 9.29547 10.6708 9.04947 10.8276C8.2992 11.3165 7.25373 11.295 6.5957 10.7415C6.47577 10.6401 6.362 10.4556 6.362 10.308C6.34663 8.67212 6.35278 7.03626 6.35278 5.40041C6.35278 5.31124 6.35278 5.22206 6.35278 5.08984Z" fill="#FF9CDB"/>
<path d="M13.6665 5.08984C13.6665 6.07689 13.6665 7.03626 13.6665 7.99871C13.6665 8.74591 13.6788 9.49619 13.6572 10.2434C13.6511 10.4094 13.5619 10.6185 13.4389 10.7231C12.744 11.3196 11.5694 11.3258 10.8714 10.7415C10.7515 10.6431 10.6346 10.4556 10.6315 10.311C10.6162 8.61062 10.6223 6.91327 10.6223 5.21284C10.6223 5.17902 10.6377 5.14212 10.65 5.08984H13.6634H13.6665Z" fill="white"/>
<path d="M14.8801 5.08984H17.9028C17.9089 5.20054 17.9243 5.30816 17.9243 5.41886C17.9243 7.00551 17.9181 8.58909 17.9335 10.1757C17.9335 10.4832 17.8228 10.6708 17.5799 10.8276C16.8296 11.3165 15.7841 11.295 15.1261 10.7415C15.0062 10.6401 14.8924 10.4556 14.8893 10.308C14.874 8.58294 14.8801 6.85792 14.8801 5.08984Z" fill="#FF9CDB"/>
<path d="M23.4023 5.06957C24.208 5.06957 24.9644 5.06342 25.7239 5.0788C25.8131 5.0788 25.9637 5.19565 25.973 5.27252C26.139 6.51478 26.3143 7.75397 26.4188 9.00239C26.4527 9.42672 26.3327 9.88489 26.2036 10.3031C26.0437 10.8166 25.647 11.1118 25.0997 11.1517C24.4786 11.1948 23.9159 11.0411 23.4731 10.5798C23.4208 10.5245 23.4054 10.4168 23.4054 10.3338C23.4023 8.5965 23.4054 6.86225 23.4054 5.06957H23.4023Z" fill="#FF9CDB"/>
<path d="M5.13788 5.06935C5.13788 6.61295 5.13788 8.10429 5.13788 9.59562C5.13788 9.66019 5.13788 9.72169 5.13788 9.78626C5.13788 10.6503 4.86728 10.9824 4.02783 11.1423C3.21606 11.2991 2.56725 11.0162 2.33356 10.2936C2.17674 9.81086 2.08449 9.27275 2.12139 8.77154C2.21056 7.6246 2.3889 6.48688 2.55188 5.34916C2.56725 5.24462 2.71792 5.08472 2.81017 5.08165C3.5666 5.06012 4.3261 5.06935 5.1348 5.06935H5.13788Z" fill="white"/>
<path d="M22.9293 15.4457V15.292H22.7756H14.298H14.1443V15.4457V21.4941V21.6478H14.298H22.7756H22.9293V21.4941V15.4457ZM23.8303 22.558H13.228V14.3911H23.8303V22.558Z" fill="#461D58" stroke="#461D58" stroke-width="0.307491"/>
<path d="M6.31972 2.60797C6.32587 2.91853 6.0645 3.19527 5.75086 3.2045C5.46797 3.21372 5.19123 2.95236 5.17278 2.65716C5.15433 2.35582 5.42184 2.07293 5.74163 2.06371C6.02453 2.05448 6.31357 2.32507 6.31972 2.60797Z" fill="white"/>
<path d="M7.55275 3.19941C7.26678 3.19634 6.99927 2.92267 6.99619 2.63363C6.99004 2.33229 7.27293 2.05554 7.5835 2.05862C7.86639 2.05862 8.14313 2.34151 8.14006 2.6244C8.14006 2.93189 7.86024 3.20249 7.55275 3.19941Z" fill="white"/>
<path d="M4.48147 2.63132C4.47224 2.94188 4.20165 3.2094 3.89416 3.20633C3.61434 3.20325 3.34375 2.92036 3.34375 2.63439C3.34375 2.32998 3.62357 2.05938 3.93413 2.06553C4.2201 2.07168 4.49069 2.34842 4.48147 2.63132Z" fill="white"/>
<path d="M22.7783 15.4463V21.4946H14.3008V15.4463H22.7783Z" fill="white"/>
</svg>
